<svg id="visual" viewBox="0 0 960 540" width="960" height="540" xmlns="http://www.w3.org/2000/svg" xmlns:xlink="http://www.w3.org/1999/xlink" version="1.1"><rect x="0" y="0" width="960" height="540" fill="#e5e5e5"></rect><defs><linearGradient id="grad1_0" x1="43.8%" y1="0%" x2="100%" y2="100%"><stop offset="14.444444444444446%" stop-color="#e5e5e5" stop-opacity="1"></stop><stop offset="85.55555555555554%" stop-color="#e5e5e5" stop-opacity="1"></stop></linearGradient></defs><defs><linearGradient id="grad2_0" x1="0%" y1="0%" x2="56.3%" y2="100%"><stop offset="14.444444444444446%" stop-color="#e5e5e5" stop-opacity="1"></stop><stop offset="85.55555555555554%" stop-color="#e5e5e5" stop-opacity="1"></stop></linearGradient></defs><g transform="translate(960, 0)"><path d="M0 351C-27.9 335.9 -55.8 320.9 -83.6 312C-111.4 303.1 -139.2 300.4 -169 292.7C-198.8 285 -230.5 272.3 -248.2 248.2C-265.9 224.1 -269.7 188.7 -276.3 159.5C-282.9 130.3 -292.3 107.3 -305.2 81.8C-318.2 56.2 -334.6 28.1 -351 0L0 0Z" fill="#cb0c29"></path></g><g transform="translate(0, 540)"><path d="M0 -351C29.6 -343.7 59.2 -336.3 87.7 -327.4C116.2 -318.6 143.6 -308.2 169.5 -293.6C195.4 -279 219.7 -260.1 237.6 -237.6C255.5 -215 267.1 -188.8 284.9 -164.5C302.8 -140.2 327 -117.9 339 -90.8C351.1 -63.8 351.1 -31.9 351 0L0 0Z" fill="#cb0c29"></path></g></svg>