<svg id="visual" viewBox="0 0 900 600" width="900" height="600" xmlns="http://www.w3.org/2000/svg" xmlns:xlink="http://www.w3.org/1999/xlink" version="1.1"><rect x="0" y="0" width="900" height="600" fill="#b2b2b2"></rect><path d="M0 428L21.5 433.3C43 438.7 86 449.3 128.8 447.3C171.7 445.3 214.3 430.7 257.2 437.2C300 443.7 343 471.3 385.8 487.8C428.7 504.3 471.3 509.7 514.2 503.8C557 498 600 481 642.8 477.8C685.7 474.7 728.3 485.3 771.2 491.7C814 498 857 500 878.5 501L900 502L900 601L878.5 601C857 601 814 601 771.2 601C728.3 601 685.7 601 642.8 601C600 601 557 601 514.2 601C471.3 601 428.7 601 385.8 601C343 601 300 601 257.2 601C214.3 601 171.7 601 128.8 601C86 601 43 601 21.5 601L0 601Z" fill="#FFFFFF" stroke-linecap="round" stroke-linejoin="miter"></path></svg>